<svg version="1" xmlns="http://www.w3.org/2000/svg" width="933.333" height="933.333" viewBox="0 0 700.000000 700.000000"><path d="M333.5 88.8c-19.1 2.7-38.7 10.8-54.5 22.6-6 4.6-17 15.8-22.4 23.1-22.9 30.6-29.2 70.5-17 107.2 13.7 40.8 50.5 71.5 93.5 77.9 6.6 1 27.8 1 33.9 0 24.2-3.9 47.4-15.5 64.5-32.3 7.9-7.8 10.1-10.4 15.8-19 22-33.2 25.3-76.4 8.5-113.2-6.8-15-21.1-33-34.3-43-2.2-1.7-4.4-3.4-5-3.9-5.4-4.4-23.9-13.3-32.6-15.6-3-.8-6.1-1.7-6.9-2-.8-.3-3.2-.8-5.2-1.1-2.1-.3-5.3-.7-7.1-1-7.4-1.2-21.8-1.1-31.2.3zm30 58.7c26.7 6.9 44.9 30.3 44.6 57.5-.1 15.6-5.7 28.6-17.1 40-7.5 7.5-18.2 14-25.6 15.5-14.9 3-24.9 2.5-36.1-1.9-33.7-13.2-47.8-52.9-29.6-83.8 7.7-13 22.5-24.1 36.5-27.3 7.8-1.8 20.4-1.8 27.3 0zM130.6 205.6c-27.5 5.3-49.7 21.6-62.3 45.9-22.6 43.4-4.9 96.9 39.2 118.6 18.1 8.9 37.3 10.9 60 6.4 5.8-1.2 19.5-7.3 26.3-11.9 19.5-12.9 35.1-36.2 37.8-56.5.3-2.5.8-4.9 1.1-5.3.2-.4.4-5.6.4-11.5-.2-39.8-27.5-74.8-65.9-84.3-10.6-2.6-26.9-3.3-36.6-1.4zm28.1 60c10.2 4.9 16.9 16.5 16 27.9-1 13.8-10.6 24.3-24.4 26.7-6 1-7.6.9-12.3-.6-10.8-3.5-18-11-20.3-21.1-5.5-24.3 18.5-43.5 41-32.9zM545.8 204.5c-.2.1-2.7.6-5.7.9-11.4 1.4-27.7 8.3-38.6 16.6-42.2 31.7-46.4 94.3-8.8 131.5 23.7 23.4 57.1 31.4 88.7 21.1 39.8-13 65-53.2 59.4-94.7-4.8-35.2-30.5-63.9-65.5-73-6.5-1.7-28.3-3.5-29.5-2.4zm20.6 60.9c14 6.2 20.8 24.5 14.2 38.1-13.7 27.8-54.2 19.8-55.3-11-.7-21.8 20.8-36 41.1-27.1zM327 351.5c-32.8 4.7-62.1 17.3-87.5 37.8-6.6 5.3-19.5 18.1-24 23.7-1.8 2.2-8.5 10.9-9.1 11.9-.2.2-2.7-1-5.6-2.6-10.9-6.1-27.8-11.6-40.2-13-10.3-1.1-33.9-.5-36.4 1.1-.4.2-2.3.7-4.2 1-5.4.8-15.7 4.4-24 8.3-27.6 12.8-51.6 39.6-60.5 67.8-5.8 18.3-6 19.9-6 63 0 38.6.1 40.2 2.1 44.5 3.6 7.6 10 13.4 17.9 16.1 3.3 1.1 54.8 1.3 299 1.4 162.3 0 296.8-.3 299-.8 9.1-1.9 16.3-7.6 20.6-16.4 2.4-4.8 2.4-4.9 2.4-42.8 0-39.5-.3-44.6-3.5-56.9-9.6-36.6-36.7-66.5-72.5-79.9-29.6-11.1-64.4-9.1-92.9 5.3-4.4 2.2-8 3.9-8.1 3.8-1-1.9-8.3-10.9-13.4-16.7-13.8-15.6-32.9-30.1-52.8-40.1-9.6-4.7-29.9-12.1-36.8-13.3-1.6-.3-5.6-1.1-8.7-1.7-10.7-2.1-12.3-2.2-29.3-2.4-9.4-.2-20.8.2-25.5.9zm45 59c45 9.1 80.3 42.4 90.9 85.7 3.1 12.9 3.3 15 3.6 37l.2 20.8H233.3l.2-20.8c.3-22.1.5-24.2 3.6-37 11.4-46.7 52.7-82.3 101.4-87.4 7.5-.8 25.8.1 33.5 1.7zm-208.6 58.9c5.1 1.7 13.1 5.7 15.8 7.9 1.7 1.3 1.7 1.9-.2 10.3-2.9 13.4-3 15-3.7 41.4-.3 13.5-.6 24.6-.7 24.7-.2.2-67.6.4-84.1.3h-3.1l.2-18.3c.1-25.8 3.4-36.4 14.9-49.4 15-16.8 40.3-23.9 60.9-16.9zm399.5-2c11.7 1.4 26.1 9.3 34.5 18.8 6.2 7 9 11.9 12.2 21.4 2.4 7.3 2.7 9.3 2.8 26.7.1 10.3-.1 19-.5 19.3-.8.5-86 .6-86.5.2-.1-.2-.4-9.8-.5-21.4-.2-21.3-1.6-35.6-4.5-47.3-1.9-7.4-2.1-7.1 7.7-12.1 6.7-3.4 14.5-5.5 21.9-5.9 3-.2 5.7-.4 5.9-.7.2-.2.7-.2 1 0 .3.2 3 .7 6 1z"/></svg>